<?xml version="1.0" standalone="no"?>
<!DOCTYPE svg PUBLIC "-//W3C//DTD SVG 20010904//EN"
 "http://www.w3.org/TR/2001/REC-SVG-20010904/DTD/svg10.dtd">
<svg version="1.0" xmlns="http://www.w3.org/2000/svg"
 width="6667.000000pt" height="5000.000000pt" viewBox="0 0 6667.000000 5000.000000"
 preserveAspectRatio="xMidYMid meet">

<g transform="translate(0.000000,5000.000000) scale(0.100000,-0.100000)"
fill="#000000" stroke="none">
<path d="M28167 28303 c-4 -3 -7 -1351 -7 -2995 l0 -2988 655 0 655 0 0 1569
0 1568 126 37 c575 169 932 135 1061 -100 65 -120 63 -51 63 -1636 l0 -1438
655 0 655 0 0 1503 c0 1545 -3 1686 -40 1869 -104 510 -443 846 -993 987 -210
54 -323 66 -632 66 -301 0 -432 -12 -737 -64 l-158 -27 -2 826 -3 825 -646 3
c-355 1 -649 -1 -652 -5z"/>
<path d="M41330 27810 c-137 -275 -250 -502 -250 -505 0 -3 162 -5 360 -5
l360 0 0 -2490 0 -2490 650 0 650 0 -2 2993 -3 2992 -757 3 -758 2 -250 -500z"/>
<path d="M57562 28298 c-15 -19 -492 -976 -492 -988 0 -6 124 -10 355 -10
l355 0 0 -2490 0 -2490 650 0 650 0 0 2995 0 2995 -754 0 c-591 0 -756 -3
-764 -12z"/>
<path d="M45162 28050 c-409 -11 -1077 -49 -1179 -66 l-33 -5 0 -2823 0 -2823
103 -12 c378 -43 763 -68 1274 -82 547 -14 851 4 1158 72 906 200 1500 772
1760 1694 107 381 151 772 142 1260 -7 376 -36 599 -112 893 -280 1069 -1063
1733 -2215 1877 -156 20 -514 26 -898 15z m914 -1166 c480 -84 817 -486 944
-1123 39 -199 50 -325 50 -595 0 -318 -26 -572 -81 -790 -135 -540 -388 -840
-807 -959 -72 -20 -99 -22 -427 -22 -192 0 -380 4 -417 8 l-68 9 0 1733 0
1733 42 7 c59 10 484 23 593 18 50 -3 126 -11 171 -19z"/>
<path d="M20920 27958 c1 -7 265 -1277 588 -2823 l587 -2810 776 -3 776 -2
317 1907 c175 1050 320 1918 324 1931 4 13 132 -730 325 -1890 175 -1052 321
-1921 323 -1930 5 -17 51 -18 779 -18 l773 0 5 23 c3 12 267 1275 587 2807
320 1532 583 2793 586 2803 5 16 -34 17 -713 17 l-718 0 -280 -1951 c-194
-1348 -282 -1942 -288 -1922 -7 28 -637 3844 -637 3863 0 7 -250 10 -734 10
-691 0 -735 -1 -739 -17 -3 -10 -148 -887 -323 -1950 -175 -1063 -319 -1931
-321 -1929 -2 1 -127 864 -278 1917 -151 1053 -277 1929 -280 1947 l-6 32
-714 0 c-566 0 -715 -3 -715 -12z"/>
<path d="M8890 27105 l0 -155 1045 0 1045 0 0 -185 0 -185 -1905 0 -1905 0 0
-175 0 -175 2080 0 2080 0 0 -170 0 -170 -1735 0 -1735 0 0 -155 0 -155 875 0
875 0 0 -205 0 -205 -360 0 -360 0 0 -170 0 -170 -687 -2 -688 -3 0 -155 0
-155 873 -3 872 -2 0 -185 0 -185 -185 0 -185 0 0 -170 0 -170 -515 0 -515 0
0 -160 0 -160 685 0 684 0 6 38 c67 447 247 732 560 889 157 80 314 108 553
100 237 -7 362 -44 528 -153 188 -124 332 -334 403 -586 17 -59 51 -246 51
-281 0 -4 617 -6 1372 -5 l1371 3 19 110 c67 410 294 719 621 845 172 67 447
90 650 55 333 -58 579 -263 716 -597 37 -92 77 -252 87 -348 l7 -70 513 0 514
0 0 175 0 175 175 0 175 0 -2 498 -3 497 -172 3 -173 2 -2 187 -3 187 -1010
280 -1010 279 -1200 748 -1200 749 -1942 0 -1943 0 0 -155z"/>
<path d="M34625 26739 c-1125 -114 -1812 -836 -1905 -2003 -29 -367 8 -767
102 -1096 180 -627 588 -1063 1188 -1268 221 -76 421 -114 695 -132 426 -29
919 60 1410 255 145 57 370 160 403 183 10 7 -43 120 -229 486 -146 288 -246
475 -253 472 -416 -183 -802 -266 -1180 -253 -192 6 -277 26 -416 93 -133 65
-235 168 -305 306 -27 54 -46 100 -43 104 3 3 584 139 1290 303 l1283 297 3
69 c8 156 -29 468 -84 715 -64 287 -209 631 -352 829 -119 167 -287 328 -447
429 -131 82 -327 156 -512 193 -87 17 -151 22 -333 24 -124 2 -265 -1 -315 -6z
m318 -990 c206 -69 348 -277 373 -546 6 -64 5 -71 -12 -76 -31 -9 -1328 -317
-1336 -317 -16 0 23 255 57 375 88 303 277 502 537 566 109 26 299 26 381 -2z"/>
<path d="M39065 26735 c-297 -34 -564 -110 -802 -230 -179 -91 -304 -178 -440
-308 -178 -171 -283 -317 -393 -542 -213 -436 -290 -974 -224 -1559 116 -1032
702 -1667 1685 -1826 507 -81 1025 -21 1593 185 207 75 516 215 516 233 0 4
-108 219 -239 477 -155 307 -243 469 -252 468 -8 -1 -68 -24 -134 -52 -219
-91 -509 -165 -747 -190 -215 -24 -464 -9 -603 36 -148 47 -288 150 -369 271
-43 65 -100 181 -92 189 2 2 581 138 1287 301 l1284 298 -1 164 c-3 299 -70
661 -177 955 -113 310 -254 534 -464 736 -203 195 -431 312 -727 375 -105 23
-151 26 -351 29 -153 3 -270 -1 -350 -10z m336 -981 c208 -61 366 -284 386
-545 5 -69 4 -77 -13 -83 -10 -3 -304 -73 -651 -155 -348 -83 -645 -154 -659
-157 l-27 -7 7 87 c3 48 15 130 27 181 84 389 276 612 584 680 87 19 279 19
346 -1z"/>
<path d="M50795 26739 c-137 -13 -306 -45 -445 -83 -814 -223 -1317 -835
-1447 -1756 -24 -176 -25 -651 0 -833 49 -361 152 -679 298 -922 124 -206 327
-419 522 -549 469 -312 1131 -431 1782 -321 342 58 711 176 1037 332 l157 76
-234 466 c-129 256 -238 472 -243 479 -6 9 -33 2 -113 -31 -343 -144 -687
-217 -1025 -217 -168 0 -283 18 -403 63 -169 64 -293 175 -377 340 -27 53 -46
99 -42 102 4 4 584 141 1290 304 l1283 297 3 50 c5 71 -16 329 -38 477 -140
924 -584 1516 -1261 1686 -190 48 -493 64 -744 40z m365 -1010 c41 -20 96 -55
122 -78 61 -54 130 -166 162 -261 25 -75 54 -245 44 -256 -5 -4 -1196 -291
-1327 -319 l-33 -7 7 63 c20 194 57 343 115 467 82 174 184 283 335 358 123
60 189 74 360 71 138 -2 141 -3 215 -38z"/>
<path d="M54770 26739 c-252 -26 -606 -105 -897 -200 -235 -76 -425 -150 -420
-163 2 -6 82 -245 176 -531 95 -286 174 -525 176 -532 3 -8 34 0 97 26 192 78
455 158 663 201 267 55 563 74 741 46 240 -36 362 -137 376 -310 l3 -38 -345
-104 c-1020 -307 -1396 -476 -1678 -756 -193 -191 -286 -400 -299 -674 -13
-274 55 -539 198 -771 77 -125 262 -310 396 -398 233 -151 505 -243 848 -286
140 -17 514 -15 730 5 409 38 911 120 1350 220 l70 16 -5 1498 -6 1497 -26
105 c-67 268 -163 437 -357 630 -157 156 -307 254 -529 345 -208 85 -477 150
-726 174 -126 13 -412 12 -536 0z m930 -2943 l0 -514 -77 -20 c-255 -68 -545
-85 -683 -41 -102 33 -202 105 -254 183 -58 88 -78 155 -80 271 -1 91 2 106
28 163 57 123 194 216 437 297 93 31 594 172 622 174 4 1 7 -230 7 -513z"/>
<path d="M10122 24110 c-120 -32 -206 -83 -303 -180 -70 -70 -95 -103 -127
-171 -180 -376 0 -814 388 -943 175 -58 360 -44 530 41 111 56 233 180 288
293 52 108 72 191 72 306 0 189 -62 337 -200 474 -97 98 -184 149 -306 180
-101 26 -242 26 -342 0z"/>
<path d="M14970 24112 c-241 -68 -407 -231 -481 -472 -29 -95 -32 -251 -6
-350 81 -302 348 -510 657 -510 474 0 799 476 630 923 -67 177 -223 327 -412
394 -99 35 -290 42 -388 15z"/>
</g>
</svg>
